<svg xmlns="http://www.w3.org/2000/svg" xmlns:xlink="http://www.w3.org/1999/xlink" viewBox="0 0 161 152">
  <defs>
    <style>
      .cls-1, .cls-7 {
        fill: #fff;
      }

      .cls-1, .cls-4 {
        stroke: #707070;
      }

      .cls-2, .cls-5 {
        fill: #707070;
      }

      .cls-2 {
        font-size: 18px;
        font-family: Impact;
      }

      .cls-3 {
        fill: #06ff82;
      }

      .cls-4, .cls-6 {
        fill: none;
      }

      .cls-5 {
        font-size: 10px;
        font-family: Consolas;
      }

      .cls-8 {
        stroke: none;
      }

      .cls-9 {
        filter: url(#Rectangle_1);
      }
    </style>
    <filter id="Rectangle_1" x="0" y="0" width="161" height="152" filterUnits="userSpaceOnUse">
      <feOffset dy="6" input="SourceAlpha"/>
      <feGaussianBlur stdDeviation="3" result="blur"/>
      <feFlood flood-opacity="0.161"/>
      <feComposite operator="in" in2="blur"/>
      <feComposite in="SourceGraphic"/>
    </filter>
  </defs>
  <g id="calculateBtn" transform="translate(-20 -113)">
    <g class="cls-9" transform="matrix(1, 0, 0, 1, 20, 113)">
      <g id="Rectangle_1-2" data-name="Rectangle 1" class="cls-1" transform="translate(9 3)">
        <rect class="cls-8" width="143" height="134" rx="16"/>
        <rect class="cls-6" x="0.5" y="0.5" width="142" height="133" rx="15.5"/>
      </g>
    </g>
    <text id="Save_Cgpa" data-name="Save Cgpa" class="cls-2" transform="translate(65 205)"><tspan x="0" y="0">Save Cgpa</tspan></text>
    <ellipse id="Ellipse_1" data-name="Ellipse 1" class="cls-3" cx="29" cy="29.5" rx="29" ry="29.5" transform="translate(72 124)"/>
    <line id="Line_1" data-name="Line 1" class="cls-4" x2="106" transform="translate(48.5 213.5)"/>
    <text id="Save_Your_Cgpa" data-name="Save Your Cgpa" class="cls-5" transform="translate(68 227)"><tspan x="0" y="0">Save Your Cgpa</tspan></text>
    <g id="baseline-save-24px" transform="translate(87 141)">
      <path id="Path_1" data-name="Path 1" class="cls-6" d="M0,0H30.533V30.529H0Z"/>
      <path id="Path_2" data-name="Path 2" class="cls-7" d="M20.811,3H5.544A2.544,2.544,0,0,0,3,5.544V23.353A2.544,2.544,0,0,0,5.544,25.9H23.356A2.552,2.552,0,0,0,25.9,23.353V8.088ZM14.45,23.353a3.816,3.816,0,1,1,3.817-3.816A3.811,3.811,0,0,1,14.45,23.353Zm3.817-12.72H5.544V5.544H18.267Z" transform="translate(0.817 -3)"/>
    </g>
  </g>
</svg>
